<svg xmlns="http://www.w3.org/2000/svg" width="449.256" height="317" viewBox="0 0 449.256 317"><defs><style>.a{fill:#d8b9bc;}.b{fill:#b49094;}.c{fill:#af9295;}.d{fill:#e6c0c4;}.d,.e{opacity:0.66;}.e{fill:#bca0a3;}</style></defs><g transform="translate(47.256 -213)"><circle class="a" cx="102.5" cy="102.5" r="102.5" transform="translate(0 213)"/><circle class="b" cx="51" cy="51" r="51" transform="translate(232 223)"/><circle class="c" cx="76.5" cy="76.5" r="76.5" transform="translate(188 377)"/><path class="d" d="M24.629,0h93a24.629,24.629,0,0,1,0,49.259h-93A24.629,24.629,0,0,1,24.629,0Z" transform="translate(163 500.698) rotate(180)"/><path class="d" d="M15.8,0H75.457a15.8,15.8,0,0,1,0,31.6H15.8A15.8,15.8,0,0,1,15.8,0Z" transform="translate(361 438.038) rotate(180)"/><path class="d" d="M20.647,0H98.609a20.647,20.647,0,0,1,0,41.295H20.647A20.647,20.647,0,0,1,20.647,0Z" transform="translate(402 306.734) rotate(180)"/><path class="e" d="M20.647,0H98.609a20.647,20.647,0,0,1,0,41.295H20.647A20.647,20.647,0,0,1,20.647,0Z" transform="translate(72 315.734) rotate(180)"/></g></svg>