<svg xmlns="http://www.w3.org/2000/svg" width="564.266" height="339.422" viewBox="0 0 564.266 339.422"><defs><style>.a{fill:#62666e;}.b,.c{fill:#858a95;}.b{opacity:0.509;}.d,.e{fill:#686d77;}.e{opacity:0.698;}.f{fill:#888e98;}.f,.g{opacity:0.66;}.g{fill:#454c5a;}</style></defs><g transform="translate(98.266 -188)"><path class="a" d="M47.052,0H224.714a47.052,47.052,0,0,1,0,94.1H47.052a47.052,47.052,0,0,1,0-94.1Z" transform="translate(-98.266 312.396)"/><path class="a" d="M24.112,0h91.043a24.112,24.112,0,0,1,0,48.224H24.112A24.112,24.112,0,0,1,24.112,0Z" transform="translate(326.734 476.396)"/><circle class="b" cx="54" cy="54" r="54" transform="translate(46 218)"/><circle class="c" cx="59.5" cy="59.5" r="59.5" transform="translate(188 406)"/><circle class="d" cx="105.5" cy="105.5" r="105.5" transform="translate(179 188)"/><circle class="e" cx="32.5" cy="32.5" r="32.5" transform="translate(21 420)"/><path class="f" d="M26.371,0h99.571a26.371,26.371,0,1,1,0,52.741H26.371A26.371,26.371,0,0,1,26.371,0Z" transform="translate(153.199 375.109) rotate(90)"/><path class="g" d="M31.445,0H150.177a31.445,31.445,0,0,1,0,62.89H31.445a31.445,31.445,0,0,1,0-62.89Z" transform="translate(316 300.073) rotate(90)"/></g></svg>