<svg xmlns="http://www.w3.org/2000/svg" width="33" height="21" viewBox="0 0 33 21"><defs><style>.a{fill:#fff;}</style></defs><g transform="translate(-6 -974.362)"><path class="a" d="M8.449,22A2.451,2.451,0,0,0,6,24.438V40.551A2.461,2.461,0,0,0,8.449,43H31.5a.75.75,0,1,0,0-1.5H8.449a.931.931,0,0,1-.949-.949V24.438a.922.922,0,0,1,.949-.937h28.1a.922.922,0,0,1,.949.938V40.551a.965.965,0,0,1-.844.949.75.75,0,1,0,.188,1.488A2.464,2.464,0,0,0,39,40.551V24.438A2.451,2.451,0,0,0,36.551,22Zm20.8,3.75a.75.75,0,0,0-.75.75v5.25a.75.75,0,0,0,.75.75H34.5a.75.75,0,0,0,.75-.75V26.5a.75.75,0,0,0-.68-.75q-.035,0-.07,0Zm.75,1.5h3.75V31H30ZM10.43,34a.751.751,0,1,0,.07,1.5H24A.75.75,0,1,0,24,34H10.5Q10.465,34,10.43,34Zm0,3.75a.751.751,0,1,0,.07,1.5h9.75a.75.75,0,1,0,0-1.5H10.5Q10.465,37.748,10.43,37.75Zm23.7,3.75a.75.75,0,1,0,.75.75A.75.75,0,0,0,34.125,41.5Z" transform="translate(0 952.362)"/></g></svg>