<svg xmlns="http://www.w3.org/2000/svg" width="69" height="70" viewBox="0 0 69 70"><defs><style>.a{fill:#777d88;}.b,.c{fill:#f7f9f3;}.c{fill-rule:evenodd;}</style></defs><g transform="translate(0.057 -0.047)"><ellipse class="a" cx="34.5" cy="35" rx="34.5" ry="35" transform="translate(-0.057 0.047)"/><g transform="translate(19.148 14.998)"><path class="b" d="M28.808,82.8a1.592,1.592,0,0,1,3.183,0v2.387a15.916,15.916,0,0,1-14.325,15.916v5.73a1.592,1.592,0,0,1-3.183,0v-5.73A16.054,16.054,0,0,1,0,85.189V82.8a1.592,1.592,0,0,1,3.183,0v2.387A12.94,12.94,0,0,0,16.075,98.081,12.908,12.908,0,0,0,28.808,85.189Z" transform="translate(0 -68.318)"/><path class="c" d="M64,0a7.065,7.065,0,0,0-7,7v9.868a7,7,0,0,0,14.006,0V7A7.065,7.065,0,0,0,64,0Z" transform="translate(-47.928)"/></g></g></svg>