<svg height='100px' width='100px'  fill="#FFFFFF" xmlns:x="http://ns.adobe.com/Extensibility/1.0/" xmlns:i="http://ns.adobe.com/AdobeIllustrator/10.0/" xmlns:graph="http://ns.adobe.com/Graphs/1.0/" xmlns="http://www.w3.org/2000/svg" xmlns:xlink="http://www.w3.org/1999/xlink" version="1.1" x="0px" y="0px" viewBox="0 0 59.002 48.465" enable-background="new 0 0 59.002 48.465" xml:space="preserve"><g><g i:extraneous="self"><g><g><path fill="#FFFFFF" d="M3.161,6.322C1.416,6.322,0,4.906,0,3.161l0,0C0,1.415,1.416,0,3.161,0l0,0h52.68      c1.745,0,3.161,1.415,3.161,3.161l0,0c0,1.745-1.416,3.161-3.161,3.161l0,0H3.161L3.161,6.322z"></path></g><g><path fill="#FFFFFF" d="M3.162,27.394C1.415,27.394,0,25.979,0,24.232l0,0c0-1.745,1.415-3.161,3.161-3.161l0,0h52.679      c1.745,0,3.16,1.416,3.16,3.161l0,0c0,1.746-1.415,3.161-3.16,3.161l0,0H3.162L3.162,27.394z"></path></g><g><path fill="#FFFFFF" d="M3.162,48.465C1.415,48.465,0,47.049,0,45.303l0,0c0-1.745,1.415-3.16,3.162-3.16l0,0H55.84      c1.746,0,3.162,1.415,3.162,3.16l0,0c0,1.746-1.416,3.162-3.162,3.162l0,0H3.162L3.162,48.465z"></path></g></g></g></g></svg>