<svg xmlns="http://www.w3.org/2000/svg" width="31.992" height="40.069" viewBox="0 0 31.992 40.069"><defs><style>.a,.b{fill:#f7f9f3;}.b{fill-rule:evenodd;}</style></defs><path class="a" d="M28.808,82.8a1.592,1.592,0,0,1,3.183,0v2.387a15.916,15.916,0,0,1-14.325,15.916v5.73a1.592,1.592,0,0,1-3.183,0v-5.73A16.054,16.054,0,0,1,0,85.189V82.8a1.592,1.592,0,0,1,3.183,0v2.387A12.94,12.94,0,0,0,16.075,98.081,12.908,12.908,0,0,0,28.808,85.189Z" transform="translate(0 -68.318)"/><path class="b" d="M64,0a7.065,7.065,0,0,0-7,7v9.868a7,7,0,0,0,14.006,0V7A7.065,7.065,0,0,0,64,0Z" transform="translate(-47.928)"/></svg>