<svg xmlns="http://www.w3.org/2000/svg" width="538" height="364.015" viewBox="0 0 538 364.015"><defs><style>.a{fill:#918876;}.b{fill:#afa288;}.c{fill:#b9aa8f;opacity:0.66;}.d{fill:#766f61;opacity:0.306;}.e{fill:#7e7360;opacity:0.384;}.f{fill:#b7ab92;}</style></defs><g transform="translate(47 -179.985)"><circle class="a" cx="45" cy="45" r="45" transform="translate(257 440)"/><circle class="a" cx="22.5" cy="22.5" r="22.5" transform="translate(-11 485)"/><circle class="b" cx="130" cy="130" r="130" transform="translate(231 180)"/><circle class="a" cx="95.5" cy="95.5" r="95.5" transform="translate(63 353)"/><path class="c" d="M28.089,0H134.151a28.089,28.089,0,0,1,0,56.179H28.089A28.089,28.089,0,0,1,28.089,0Z" transform="translate(-20.594 406.821)"/><path class="d" d="M37.18,0H177.569a37.18,37.18,0,0,1,0,74.361H37.18A37.18,37.18,0,0,1,37.18,0Z" transform="translate(166.577 179.985) rotate(90)"/><circle class="a" cx="58.5" cy="58.5" r="58.5" transform="translate(-47 259)"/><path class="e" d="M18.2,0H86.9a18.2,18.2,0,0,1,0,36.393H18.2A18.2,18.2,0,0,1,18.2,0Z" transform="translate(292.844 328.832) rotate(180)"/><circle class="f" cx="45.5" cy="45.5" r="45.5" transform="translate(327 315)"/></g></svg>